<svg width="60" height="40" viewBox="0 0 60 40" fill="none" xmlns="http://www.w3.org/2000/svg">
<path d="M39.1745 2.64594H54.1463V6.50329H39.1745V2.64594ZM24.1726 17.9079C27.4822 16.2263 29.2158 13.6681 29.2158 9.71508C29.2158 1.89679 23.7373 0 17.4109 0H0V39.2429H17.8987C24.6079 39.2429 30.9043 35.8159 30.9043 27.8462C30.9043 22.9209 28.7129 19.2787 24.1726 17.9079ZM8.12008 6.69456H15.7373C18.6717 6.69456 21.3058 7.56326 21.3058 11.1815C21.3058 14.5129 19.257 15.8518 16.3527 15.8518H8.12008V6.69456ZM16.788 32.5802H8.11257V21.7733H16.9606C20.5328 21.7733 22.7917 23.3592 22.7917 27.376C22.7917 31.3289 20.0976 32.5802 16.788 32.5802ZM60 25.4473C60 17.0393 55.3696 10.0339 46.9944 10.0339C38.8518 10.0339 33.3133 16.5451 33.3133 25.0807C33.3133 33.9271 38.5591 40 46.9944 40C53.3809 40 57.5159 36.9476 59.5047 30.4363H53.0281C52.3227 32.8671 49.4559 34.1423 47.227 34.1423C42.9193 34.1423 40.6679 31.4644 40.6679 26.9137H59.9475C59.97 26.4435 60 25.9494 60 25.4473ZM40.6679 21.9884C40.9006 18.2506 43.2495 15.9155 46.7617 15.9155C50.454 15.9155 52.3002 18.2188 52.6229 21.9884H40.6679Z" fill="#EBEBEB"/>
</svg>
